<mxfile host="app.diagrams.net" agent="Mozilla/5.0 (X11; Linux x86_64; rv:132.0) Gecko/20100101 Firefox/132.0" version="24.9.0">
  <diagram name="Page-1" id="eRf72tyfQIs7wseGW-RG">
    <mxGraphModel dx="989" dy="628" grid="1" gridSize="10" guides="1" tooltips="1" connect="1" arrows="1" fold="1" page="1" pageScale="1" pageWidth="850" pageHeight="1100" math="0" shadow="0">
      <root>
        <mxCell id="0" />
        <mxCell id="1" parent="0" />
        <mxCell id="HAClDOSr-csIPDZp6A96-1" value="" style="rounded=1;whiteSpace=wrap;html=1;" vertex="1" parent="1">
          <mxGeometry x="40" y="40.1" width="770" height="370" as="geometry" />
        </mxCell>
        <mxCell id="HAClDOSr-csIPDZp6A96-2" value="Local Repository" style="rounded=1;whiteSpace=wrap;html=1;labelPosition=center;verticalLabelPosition=top;align=center;verticalAlign=bottom;" vertex="1" parent="1">
          <mxGeometry x="90" y="90" width="210" height="290" as="geometry" />
        </mxCell>
        <mxCell id="HAClDOSr-csIPDZp6A96-3" value="" style="image;aspect=fixed;html=1;points=[];align=center;fontSize=12;image=img/lib/azure2/compute/Virtual_Machine.svg;" vertex="1" parent="1">
          <mxGeometry x="70" y="70" width="69" height="64" as="geometry" />
        </mxCell>
        <mxCell id="HAClDOSr-csIPDZp6A96-4" value="Kubernetes" style="rounded=1;whiteSpace=wrap;html=1;labelPosition=center;verticalLabelPosition=top;align=center;verticalAlign=bottom;container=1;" vertex="1" parent="1">
          <mxGeometry x="440" y="90" width="360" height="290" as="geometry" />
        </mxCell>
        <mxCell id="HAClDOSr-csIPDZp6A96-6" value="Development" style="rounded=1;whiteSpace=wrap;html=1;labelPosition=center;verticalLabelPosition=top;align=center;verticalAlign=bottom;" vertex="1" parent="1">
          <mxGeometry x="470" y="130" width="310" height="90" as="geometry" />
        </mxCell>
        <mxCell id="HAClDOSr-csIPDZp6A96-7" value="Production" style="rounded=1;whiteSpace=wrap;html=1;labelPosition=center;verticalLabelPosition=top;align=center;verticalAlign=bottom;" vertex="1" parent="1">
          <mxGeometry x="470" y="260" width="310" height="90" as="geometry" />
        </mxCell>
        <mxCell id="HAClDOSr-csIPDZp6A96-5" value="" style="aspect=fixed;sketch=0;html=1;dashed=0;whitespace=wrap;verticalLabelPosition=bottom;verticalAlign=top;fillColor=#2875E2;strokeColor=#ffffff;points=[[0.005,0.63,0],[0.1,0.2,0],[0.9,0.2,0],[0.5,0,0],[0.995,0.63,0],[0.72,0.99,0],[0.5,1,0],[0.28,0.99,0]];shape=mxgraph.kubernetes.icon2;prIcon=ns" vertex="1" parent="1">
          <mxGeometry x="460" y="110" width="50" height="48" as="geometry" />
        </mxCell>
        <mxCell id="HAClDOSr-csIPDZp6A96-9" value="" style="aspect=fixed;sketch=0;html=1;dashed=0;whitespace=wrap;verticalLabelPosition=bottom;verticalAlign=top;fillColor=#2875E2;strokeColor=#ffffff;points=[[0.005,0.63,0],[0.1,0.2,0],[0.9,0.2,0],[0.5,0,0],[0.995,0.63,0],[0.72,0.99,0],[0.5,1,0],[0.28,0.99,0]];shape=mxgraph.kubernetes.icon2;prIcon=ns" vertex="1" parent="1">
          <mxGeometry x="460" y="240" width="50" height="48" as="geometry" />
        </mxCell>
        <mxCell id="HAClDOSr-csIPDZp6A96-10" value="nginx-dev" style="aspect=fixed;sketch=0;html=1;dashed=0;whitespace=wrap;verticalLabelPosition=bottom;verticalAlign=top;fillColor=#2875E2;strokeColor=#ffffff;points=[[0.005,0.63,0],[0.1,0.2,0],[0.9,0.2,0],[0.5,0,0],[0.995,0.63,0],[0.72,0.99,0],[0.5,1,0],[0.28,0.99,0]];shape=mxgraph.kubernetes.icon2;prIcon=pod" vertex="1" parent="1">
          <mxGeometry x="680" y="270" width="50" height="48" as="geometry" />
        </mxCell>
        <mxCell id="HAClDOSr-csIPDZp6A96-11" value="nginx-dev" style="aspect=fixed;sketch=0;html=1;dashed=0;whitespace=wrap;verticalLabelPosition=bottom;verticalAlign=top;fillColor=#2875E2;strokeColor=#ffffff;points=[[0.005,0.63,0],[0.1,0.2,0],[0.9,0.2,0],[0.5,0,0],[0.995,0.63,0],[0.72,0.99,0],[0.5,1,0],[0.28,0.99,0]];shape=mxgraph.kubernetes.icon2;prIcon=svc" vertex="1" parent="1">
          <mxGeometry x="540" y="272" width="50" height="48" as="geometry" />
        </mxCell>
        <mxCell id="HAClDOSr-csIPDZp6A96-12" value="&lt;div&gt;nginx-prod&lt;/div&gt;" style="aspect=fixed;sketch=0;html=1;dashed=0;whitespace=wrap;verticalLabelPosition=bottom;verticalAlign=top;fillColor=#2875E2;strokeColor=#ffffff;points=[[0.005,0.63,0],[0.1,0.2,0],[0.9,0.2,0],[0.5,0,0],[0.995,0.63,0],[0.72,0.99,0],[0.5,1,0],[0.28,0.99,0]];shape=mxgraph.kubernetes.icon2;prIcon=svc" vertex="1" parent="1">
          <mxGeometry x="540" y="140" width="50" height="48" as="geometry" />
        </mxCell>
        <mxCell id="HAClDOSr-csIPDZp6A96-13" value="nginx-prod" style="aspect=fixed;sketch=0;html=1;dashed=0;whitespace=wrap;verticalLabelPosition=bottom;verticalAlign=top;fillColor=#2875E2;strokeColor=#ffffff;points=[[0.005,0.63,0],[0.1,0.2,0],[0.9,0.2,0],[0.5,0,0],[0.995,0.63,0],[0.72,0.99,0],[0.5,1,0],[0.28,0.99,0]];shape=mxgraph.kubernetes.icon2;prIcon=pod" vertex="1" parent="1">
          <mxGeometry x="680" y="140" width="50" height="48" as="geometry" />
        </mxCell>
        <mxCell id="HAClDOSr-csIPDZp6A96-26" style="edgeStyle=orthogonalEdgeStyle;rounded=0;orthogonalLoop=1;jettySize=auto;html=1;" edge="1" parent="1" source="HAClDOSr-csIPDZp6A96-16" target="HAClDOSr-csIPDZp6A96-18">
          <mxGeometry relative="1" as="geometry">
            <Array as="points">
              <mxPoint x="290" y="235" />
              <mxPoint x="290" y="205" />
            </Array>
          </mxGeometry>
        </mxCell>
        <mxCell id="HAClDOSr-csIPDZp6A96-16" value="" style="shape=image;verticalLabelPosition=bottom;labelBackgroundColor=default;verticalAlign=top;aspect=fixed;imageAspect=0;image=data:image/png,iVBORw0KGgoAAAANSUhEUgAAAUUAAAE1CAIAAAD/NGXLAAAACXBIWXMAAA7EAAAOxAGVKw4bAAAgAElEQVR4nO2dZ0BTVxuA33tDgEDYW4biFlRwC4qI2zpBUOseta5WBbVYt/ihrVocrdpaKXWAiEgtVnDgYAooCihTRtgz7BWS3Pv9AJQRkjgIJDnPr5bc3POec+/re84dTzBdXV1AIBASAd7dASAQiC8GymcEQnJA+YxASA4onxEIyaFtPmOKSr3NtbSUsG6KBoFAfA4yH/4To+vb/mY1Wgcny7JvbQuPZZLdFxYCgfgEWtVnTFvDUBPHAHBVTcNeqEQjEGJHq3wmsjJDn5XX1jcWP094mUx0X0wIBOLTwNDzJAiExICubyMQkgPKZwRCckD5jEBIDiifEQjJoX0+FxQUFBQUdEsoCATiM0H1GYGQHFA+IxCSA8pnBEJykBG8SdeBqelP/37IICNqxq8P7sWhJ9IQiM+kW+szpqDSf4x2Lz15KpomIBBfAJRICITkgPIZgZAcunX93Awm23/NtF0/qqnKc8sTsp79Gfsqg00CAGCaMy0cFmmrq8vR5DF2ZXXei/Sgv1MYFc0vZmOKqiOWDbew1NbRolIITk1RZW7wm9ueBXVNn8soDLAzs5muZ6ArS9bWFLxiPLuamFyIVukICaYn1GeMojFQU0OJQqHKapoPWPS/ccM1mt++bqTK6xsqKMoBQWBy6ir9Zo5cs3eQZlPMuMLI3dPs7QwMdKg4h0tSqMoGmn17UZr+JQBccYTzjDVrjI315XCClFFW7m0zfOWJcSYq3dVJBEIE8K7PX+oRMT09PSG2IhoTzj3wfVwna2a+5tAgPTWDSdOV33hXEkBWP3l+4lljdQ2XxGX15lqs26hPH2JkopcSkkeCvLbJCFkMiKy/A/70qeLiMspGGtp4OQcAAGjjzGZbKmAs5rPDIUFx9bheH7tjFuY6vSdNe5t8uxrVaISE0hPm28CtKa5t4BANr5KiEgYsNMe1B6nLQWU9AMnG1Cz7jx2krEzD2ByskQTA5ZVVMMgjgVVdUkyQBrihraWDQtrr4Jy0zKK05h3iRuP16DiQ9aS6zfAFNgCAKRIkieG6/VVwQPmMkFR457NwdfWLQzbUVpIkAKYoK4dDA11vzk9WlsYybdRHBAZN/89lPjkWrbDdfORAdbMlY80Wj65Jy3p6IeZ5ciOJydBVqRgApqY5fKZm629TZGV6wgoDgegaekR9bgGnqWhgGABRw2ogMCWrIeP7yEBdSdDhiPDkerb6gLWXR/VrlY6NmRl+Oxj3jXQGWxqaT+vdf4Dx3COU2m/D4iq59bVcEnAiPf7XbW+LUDlGSAs9o1rhOAY4VdN62PjBOJDc7NclLAAZOQpgAFxWVXF9A5sgGrlEa+MoRXX4QuMBxvJEQeEr7+jrZ9KZXMDoavr6OAA3+2URiwSK8WDb9X30NWQoMjIKWqp9R6kr9Yz+IhBdQ0+ozzhttIvDSBLDKRgG0JiW/OhRLQlQEVtQzNbSUzKwvWw/o4LFIamKMgAtKY3r9pq43txQBkiCYLNIGXkKjgFRWpyRRQBATUjs/cka80fTettZfmfX/BWyPtt7eVh8fTd1E4Hocih0Or31/+/atQsAfvnlF5G0jlOUeynIU3CqnIyMDDQyK9OD4nxPJ+XUAQCQ5aWp6QRdR4GuLKeoJCtLJRqYNUXvipNC8wqqAWSAQqHKKcjS6FRZKtlYXpMT9S7wTFxikzacYOWFZmdVYvLKcjQ6lYqT7KraoqSi1BdFzAaRdA2B6Aba+z2b7lR10/UwBALxWaD1JAIhOaB8RiAkB5TPCITkgPIZgZAceko+I68oAvH59JR8RiAQnw/KZwRCckD53Awur6ZCQz96jRBvUD4DAGAq9h6Jz49OpH7ujmTMfgzJaboWUJD97wYjNLyfChrJTwINEwAAYBTKFxkJTvKlFZOtrKxsNnrmiNdrXZjqhK1up1aZ9oQH+gHEeSS7lZ5y+CQFFjM7nQkgo1TBJgVv3YPAVIbOtLN549tjlhxiO5LdCqrPCITkILX5LKNrtfnMP+Fv07MZSZH+Z5b0azMSGH2w7V73wBcpDEbq68fXj9ib0FsKF6WPratnQNjrlMzs7MzkmKBrR1eOVhd+GCla4745dSs0Pi3zXXzorVMbLLQpLREN2xOcnXJpvvKHjZVtL6cyfFbr4oBpzzjsF/4mLSszMfTGke+cfrsXk/Lu9d0Tdv1khYnZ2O7YNf/gmKT07Jzs9Lfh/ud3TNF/f7GAOvnU27y8yMNj5Hqtu53dvGbN8lqmIbhW840ZAADT+uqngIi4VEZObnZafLD3saWmzVEJ0SPERyOd+YwpTzp865rT0Ky/d610WLX7Qlijugblw8c0s+1e/55ZSA06unLOV8sPPpCZ7+Z1cq5W03mIa4+YbqUWd/rbxQsWLt507B7L5rDP7UMTlYWZqGJKFvtu3tgzqthr35qv1+2/UTzK2evWIaum73KSg57k0ixsxtJaNpcfNXGs/LvnUSUE4MqDxo2UffLDzKnLPBoXOa9VvbvVbuXv5bNOnV7blyI4Zi3zadZaCRd2rLG3XbRu/80i8x3uHt+bNmc0O/L47AkT7M/GNxb5bp1k2YS1o3+54Hku35gBAMiKRD+3XasXTre2nr54t0/dtJ+vHJqkCACCe4T4BHrW+llEXlFK35XOK7TD99k4eeYTABAVGsYaNuPIh09dtg1Nc5uz/mwSGwASkjYRvUPPb3QwDriQwQUAAKIsMSzsRQYX4NWLkIj8v4JOHP7Ge6ZbEpd/WBTj5T+u1Y/cP+V7zzwCACLDo5mKT0/sW3t9ztlULrDj7t3PWW87Y6x8UHADAFCHWlmo5gSGpHMBKABA1hWkpWW8qXiSeMCUEReTEPnmTsyeYyb9KJABwsSc8DQoNIML8PJFFLNXmKfdAtNzCbEcAGhg5jDK8XIWya0qZGRmsj9ipPnF3LQBIzqI0fzf6e/260+J+G6mOTU4nA38eyRgKBG8kcb6jKlbWA2FF/4BBbwunGJaVtPMyRCPq8kt5zVZGRb8GkxGmynw2htR4O/9rH7AZCsDQWOJqVtMHk4+9/svv6VdovCeXyhriLVV0+yUHfuPf4bG9HnjaQAAlH5Wk/SLnj5+0y6/uFwCMAwDAILLBQzHPj5mVkJ8KqGrr/sFjr6gmOX7znI8d+vpq+T0zLSkl75bh1JV1VXbzWV49AjxafSs+iwajwKuqq6K1SaW1PCcT+Kq6uoYzdItltHK0YJRqPBSsxPXL6e0uByGa6rhkMX3zgquqqGK17wtqWvVLqu4qBIGaKjhkEcAcBJv3YzbtMVu0uFnD+p6WVn3K3l06GWjUD36qJjJhrp6oMh8kWktv5jxXg4X//3FPNndbe/ZxPwaisYgh/0n7VG6dh09K59FA1HOLCcUtLToGPBYIhLlpUyiPGCvw4noNplE1pd0YgqV0dRWg/KyitafkgTRodAQFWUVJF1TSwGDypZ25TS1VKDi/Xe5mb5Xnm13XTlPN+ip9dShzEenOqQz2ZD25Oad0jaxfHzMHSEIAvBPuQvfecyYhs2iKbTHjt+4+DV3OMNw9c/27XfAq0etPuUxkojOkMZ8JssinsbBD18v6e/3+7sOi0WyNPxpPG3jhL6VN/4rEeLOJ6Yxdb6VQqZXeG6r85Gsrq7B1DXalmyyLCI4Ht+xaJ6+3/WmjXHdWYsmyaVeCns/8ydL7l3y2Xlj3Qpr2ujRzMCz0awODVZHXtoT+Xkx84CoLCsnlHW0aQA818+Y5sTvD60fkut55GRQux8B4xMzBgAkSQoIiUePPuyc10giOkMa8xmITE+XC7bee3289M56PE4pIxSMRunhUNb0KTfT09Xd3vPMHQ+zP2+HJxfWEnKqBr0h/uajNE7zDmRM1xw7xPENSyqhDpizdffcxjub3N9yWrXAzY1/U7570fYNMX/GNqgZ65QH+UYUE9zM667u9l5HvC6onb4RU6Zq7rDN0ab02mqPlFZXf+qj/rgQuWTvuZ20nKuuL4SYbAsZsyBqX0cnUH7YfmxD3Y24Mlyjv07Zg9tRzPc6VUPb3bvsx1LZhu/8n3a48NdJzCQz5F4Ex2XXyS2sv4LTytgydKMh2jjkCBlRU894juTH7EGqkMp8BqiNObVkIWOb09rNp1b2UpZpKM9nRD6Iaq6wZHXUcXt7hpPjqq0nN+jRcVZVYWbcrcN3g9Kqmk9voryYNF9zdJWBIrs0OdTj282n77cri6xQtx8uGR3+/g9v+dr8lGfnom9HFAOQ1ZHHlizN37N7rctfO2l1ObEPTiw78VdEZZvvEnm+Z25uvrX63W8+icImoxAxC4Kb4eG00+i40/YLC9RkWMVJ9449/yeK2ZK4RGFEQEShiWlOYEgWj0vPncRMZF/fspyyZ/eqox5OWkqy7LrKipLE5wlFHzOF4D2SCN70FL+n+HhFqWNdwn1GXZky/3yX3VNRGHMo0N3w7JQNfqVi86ijOMYsgUhpfe6J4OrGA1U4jUom83a52hecXugvBokhjjFLNCifewq43uzDt1xtFKuzYwJOL3P1Shd6rt19iGPMkg2abyMQkoM0Ph+GQEgqKJ8RCMkB5TMCITmgfEYgJAcpzWearumEsX3p6KlghGQhnflMHbbFw/PQbG2x673cSEf/Nynhp2YJ4Q6RhHa7Aok2h0pUZ3oKXebKxOj9zU00lAzNBmt96QPHN+YubFf0SLQ5FD1P0gV0mSuTZPrtdqixVEp+mPylnzXlG3MXttsNSLI5FOWzeMEpfh1wR4raRXwc4j99+gJgKuOc/0uO9Vw7WA4AQHbamSSG59fqLaUK77XuNiPupHWLEBNTMl185MrDF8mZOTmM1LevwgPOOLSswgS6Mjv1ewrwXQpa9VFt3BLyCtrQerPOPZsCYha82uzcWCrAK8oXZA79JFB9php9dcT95BTG/5Zuu57c0R7QEaWpR66fGBfpum9FeEY5R05Vt89ABUbLK7nsyOOzJ1wwWnrRa2mqo4Pbaw4AAFlX0iRCwZQs9t30XIUF/rJvzesK9ZFLHZ29bhmumncotIps9l06zTybYXno+pG1sa4b7GLNnC+dOp0ea/tHBifp4tdW3rIYxWSL5/mBHaNiRx6bPeFXCgYAgGnPcHXfP+SF96MPnoSKRD+3Xd75JVUsXLX/tO+O/nyFWmC9O7hWUMwC2uXXoxav6MsjO/a/YTbQDCxW7HZy98DnznFLEOgc5CQHPcndYm8zluYfVA8ALeZQj7bmUF49EjCSErBi6Jyelc8i8nu+B9e2crr421qa3/cL//e4ULgDTdEaNEidGep17eHLBgAASE2IafUxP1cmX78nAH/fZWNFHqMCQEa1ksNz1Vdfms0oBQCgDtxwwnF8sfvy7d6MD83z82zy9XvybVeAsRSAr1eUL8gc+ilI73wbUzLb4HHvL9uSE4vsjwibzADAzQr0DpdbdsHv3I5FY/U/5icpBfo93zfxGb5L+pgfLvw47O3xza4RbUwGwng2Pxqhe9TMR3lFkTn0E+hZ9VmU71fhuuPnGqhzkgpLq3hN/rBODz0349qaGRnLN29c5eK781hOmO+l02c9o4sFvyrI3+9Z+CmdaB+0ms3Bsxu1nu1cfTmldae6yrMp2Fjalo/ziiJz6McjvfWZ++7Ssjk77skv/9P/z7WmrTXVJJvdiCnS+Tw91pgf7nFglc2IUV853igbv9f3P7evtFpvzduV2crv+Z52fs+m9hvSnty8E8PXd8nruGEaM4+cWkq94+zs2zaVmj2bR79xuXY/LCY+NvppYGSHW6+C/J682hW2R58IN9P3yjPqzJXzdCna1lOHMh8FtDOH8u+RcCMpWf8GSG8+A5C1qb67Fyzc/2rwIZ9r20YqtRxZLuNdFgwcZa4k6FA3lrwJ+O375cejdebaWdI+/L2VK7NNe2URwfG4xaJ5+i2j3uz3DA5ra/avjry056hfOs8lAFlVWY1p6mh0qHGY+syDrgu5t348+KCj4lOwZ7OTmPm3K3SP+IFpTtz2q8dF52kdp+Fkyb1LPmUT162w/mruaGag/yeZQzsdyffmUAmiZ823RQ9Zk3B1sx3z5K3zVy7V2K/+K6URgMgJuBnmdPzgbztlLgdn1eL0fiaaOGQ0fwPXW7Bv5yBGUEhsZnEtoaA7zHahCWR6pLc2cXbiyuTr9xRyEsrNjYsrc7Zz2vry/PNq1f4GVUE3w4oIAAULx4O29MifvDPU+hirNfWNXVmQW8YS0rPJ3+/ZSbtCGUv5g8yhXxJpz2cAAE7+Pef1ht7/Hvx9T8Jcl6haIHJvbFut5HJg3fGrOxQxdi0zn/H8yavmioNRORStyZtPbNBXV6AQdczsxAiPjTvOtdX1duLKFMrvKYDGiNNO542Objh/05Fdmvbsl2ifsCIA6pBpU42oysYH/MMPvI8i97K95YFItnCeTf5+z87a/fweIXPolwT5hhA9HGQO/QhQfUb0SJA59JNA+YzoiSBz6KeB8hnREyHyPFcP8+zuKMQPibpYj0BIOSifEQjJAeUzAiE5oHxGICQHlM8IhOSA8lnkIFcmostAB0DUIFcmoutA959FDXJlIroOlM+iB7kyEV2F+E/5Pg1+jk4AwOiDbfe6B75IYTBSXz++fsTepJXdAFM2W+J84vLtR+Exb1OzcvNzGcnBhyfIAoDMUOen7aSUQB3nEpX9/NAYqlCrTVzF1M75vM/D8NcpDEZaYkzIHZdZmi1N842KD8iVKTVIaX3m6+gEmtl2Lx9H3ahzR1fuSiP7zt3p4ualzZq+5W6TKADXmbxuy+zyC4f2/ZRawKyqJ2nqquwMNgBwUoKe5Gz9eoYl3f9+TdO+qMNnTNUrfvIojg0AAhyduO6sk76/2yvG+lw+/UcMo5JU0DA0IlKb3KCCouIDcmVKDT0rn0Xl9+Tr6KT0XemybWia25z1Z5PYAJCQtInoHXp+o4NxwIX3JzBZGf/A/1mLpTK75bvs+MAHORsWzRincP9xHQAA1WzOLMOCwLtNohz+jk4lm93HHWj3t8/d+k9eSztRHxVVZyBXprQgnfNtfo5OTMtqmjkZ4nE1ucWoR1aGBb8Gk9FmCjx21Q523J27mWrTF0ykAwCA7Mj5cwwy/7kV0yjgewBANZ8+RSPD5/zdPB5Z8nlRIVemtNBT6rOITQZ8HJ24qro6RrN0i2X88mF7jEKFl5oqOFQLuivDTvC5Gb/pu4XWyg/vVSlYOszTSXD3FayPb2pYlSzMK+JZ8z4zKuTKlBJ6Sj6Lnsb8cI8D4R5HtYZNW7Jp517f6aM2zdkeUEIS5aVMojxgr8OJ6DZFlawv6cQT2RYuw+9GhONBh5lagQ/HL/1KIeyobwcfHU9HJ1FRXokN6KVNAR7u38+NqsmVud115TzdoKfWU4cyH51q58p0/MbFr1kTlGG4+mf79jtocmWWSpErUxyRzvl2Kzo4OsnS8KfxtDET+lamp7UmPa9SmCoLQBT9d/1ho/XqpdaL10xj3fO4W9h+rczb0cmOexJS0W/x5tm6PNSAQkaFXJlSjnTWZ76OTm6mp6u7veeZOx5mf94OTy6sJeRUDXpD/M1HacJJMsjKR396Zft///tAOcalgyE1HTboxNFZFfTzwbt+534L0Jlw2ftJfE45R1ZFu7d2eZB3aCEhVFTIlSntSGc+83d0ktVRx+3tGU6Oq7ae3KBHx1lVhZlxtw7fDUqrEvIZKHb8VfeI9cfNHl+8ksirqPN2ZQI37862ObkRmzcsXnbAzllDAeqZOUmhF1/chELhokKuTGmnp/g9ESIBuTIlHOmsz1IGcmVKDSifJR/kypQe0HwbgZAc0A0GBEJyQPmMQEgOKJ8RCMkB5TMCITmgfEYgJAdpvF+Fm/ywaIUNtfnlAYL14uA/fjHo4USEBCCN+Qyc2oaaci5GodCUqDzefUAgxBVpzGci9fzdY+cB0xu88dLI3mjFgZAc0NmMQEgO3V6f5ZRN7IZaTdXtpU3llFVkhqQ+uZmZXwsgozn30vQJelB+J+iXP0q4AACY5uIZO9ZqYKXvPNa9SGMDyCgMsDOzma5noCtL1tYUvGI8u5qYXNi0EsboQ4zH2vTqa6quo0tTkKdgQDRW1ab+/fTGgxpBTy9jmjMtHBZpq6vL0eQxdmV13ov0oL9TGBUkAKa1eMb2tRp4Xbb3qrD4WgBMfszRBbajKI3PI34+yqgnAVNUHbFsuIWlto4WlUJwaooqc4Pf3PYsqEPPTCO6nO6tzzIqFgenr1jVp4++vCyVoqCjYepg8e2x4b1pAJyyt1G1BGAqI3rpNK1xccVBY9VwIGuic7PYALjiCOcZa9YYG+vL4QQpo6zc22b4yhPjTFSado3pTTebNs+oX186XYGC44DhuJyKPFnHEiatGqny+oYKinJAEJicukq/mSPX7B2kiQMAyYzOK+YAJq/dfwgFAICq0bs/jpHc7OiiBhIAVxi5e5q9nYGBDhXncEkKVdlAs28vCpLNI0QC7/osGs8mpjx1xIwRckDUxp8L+fdZrcKYEauc+2kNGDJ7NuOSX1XO87yq+YNU9XsNMojPzyJxXcNhg3CMqE8OL2YD0MaZzbZUwFjMZ4dDguLqcb0+dscszHV6T5r2Nvn2B58WUcDw/zU1u5wNsvIqerK1b4R5F4GsfvL8xLPG6houicvqzbVYt1GfPsTIRC8lJI8kcvKScofq9ZEbMFaT8rKI7KPZm46R3LKU1w0kAMhrm4yQxYDI+jvgT58qLi6jbKShjZejNyAQIqE759syfcfpyGFAJKc8fFReR0BdeHz4W+MF5hSDMdr0f6qqknISSgZO0FExtVAOzqrSnNTbgAJEftareC4AbjRej44DWU+q2wxfYAMAmCJBkhiu27+NH4+srsyIKy0hAKCyIFXYyEg2pmbZf+wgZWUaxuZgjSQALq+sgkEeCdzKtxFVk/uoKo8zMPqzuGqojhoFiNT8lCYLNqu6pJggDXBDW0sHhbTXwTlpmUVpX37oEAietM9nEb5ZhcsqKmEYAFFaV9WsdWdVMrkAOCjJ0zCoYpe+flplsVRFd4KB1u0CMxtVChAFTzJyOACYDF2VigFgaprDZ2q23itFVuYz1xCYst6cn6wsjWXa2O0IDFpuWBc+zshxGNlb03D40OQ8czUciPznuWVNXeAynxyLVthuPnKgutmSsWaLR9ekZT29EPM8uRHNuBFdTzfWZ4JdU0mQgOPqCko4lBEAmLxKkyOvsqGOBACi4HFmnr25oXGfUXMVTA1wsqEw6lElAQAkt76WSwJOpMf/uu2tcIbLDnBIAgDaizYxJash4/vIQF1J0OGI8OR6tvqAtZdH9Wu1DVmQFRM7zGgMbdh8M3UTCsYpT4yseh9CY2aG3w7GfSOdwZaG5tN69x9gPPcIpfbbsLjKTwoSgfgIuvN6WGNmdBGLBHzwgKnWyvKyVO3JwycOxTGSm/2isOkaNJHPeBnPISkqlmv7qeFkTXhqXPOPu3CzXxaxSKAYD7Zd30dfQ4YiI6Ogpdp3lLqS0D0ia+qrGwFwGcPROspyuLy2hpEBFQOQkaMABsBlVRXXN7AJopFLtKutZP2bgJxqAlMc32egInAZ2QnZLVtQVIcvNB5gLE8UFL7yjr5+Jp3JBYyupq+PbgwiREC33q+qehIbNFlrzgilkT/MHdnyx4bkhMDAlltKRF38v9lTzfsqU3GSUx59J7+hZbOakNj7kzXmj6b1trP8zq75j2R9tvfysPh64ZpvKE563Thsgqz2fJsf5wMAWfHv41O/F1fEFhSztfSUDGwv28+oYHFIqqIMQNuUbniREs3oM7UvjpHc7KCs9ypLXLfXxPXmhjJAEgSbRcrIU3AMiNLijCz0PClCBFDodHr3tU6wcsJyCjlyKpo0BRrOKa9IexDrczY1r1VCcgqrqWP799WA+ojXvv7lja2+mxeanVWJySvL0ehUKk6yq2qLkopSXxQxGwAA0xg3eMQAKsksinpQ0sm9X07RmzJCV01LW1YWuHUF5RlROYnvGojy0tR0gq6jQFeWU1SSlaUSDcyaonfFSaF5BdUtXyVZ1XT9cSMUsOqcwLPpRe/DkgEKhSqnIEujU2WpZGN5TU7Uu8AzcYlMtHxGiID2viGEAKhKclgti9Dpbfs/ixF6UOj94PzVcvSzbIieQbc/HyZmyJpsn794LE5SKBQcuLkp926jZEb0HFA+fxQ4jS7HYhEKspz6griMoD/epNd2d0gIxAfQfBuBkBzQbRQEQnLoKflcUFDwpR4aRyCklp6SzwgE4vNB+YxASA4onxEIyQHdrwKQNTWxX2Goq1sdtDUivq67o0EgPh2UzwCUXtom5hoUdj2arCDEHHQKIxCSA8pnBEJykNb5tlzffrO/HTLMhC5TV1tS0VZFAp2bQ4WxjiIQ3YZU1mdMo4/9/8aOM1NWkMGpykr6vWlthoGPOVSgdRSB6E56Vn0WkVdUd9YQEzWMbCwLPvAsKInQtZ+8eZXm+x++4W8O5W8dRSC6lZ6VzyIBkzUYooIBEG/fhb9p4JJQVtrY6mMB5lAOP+soAtG99Kx8FoldFJOVVwQMgFvJqu9oDRFoDuVjHUUgupmelc8igWxsqAUSgKJFV8ahvJ3YS7A5tHPrKALRzUjh9TCyMTO+jCABHzzAxpJOxQBrMwiCzaGdW0cRiO5FCuszkMyA+Mhp1paGSmP2zR/NJUi8jYFbsDm0c+soAtGtSGF9BiBrCgN+ePJfQEFRGZvAgKxnVWSXvgsrKm26Qs2pinJ58NfvKYkp1TUNBEkQjZU1+W+rWHIf9tAQkxSZTpBA1kcmRWaguTaih9BTfENNd6pE+Gs7CIQEIpX1GYGQUFA+IxCSA8pnBEJyQPmMQEgO0p7PyCuKkCSkPZ8RCEkC5TMCITmgfO5mcHk1FVp7nQIC8WmgfO5OMBV7j8TnRydSP3dHMmY/huQ0XQsoyP53gxE6rJ+KmI+kmIUraWAUykS+crEAACAASURBVBc5ApzkSysmW1lZ2Wz0zBGvp08x1Qlb3U6tMu0pLxKI70gCgHS+jyGJsJjZ6UwAGaUKtni96oWpDJ1pZ/PGt8csOcR2JAEA1WcEQpJA+SxiZHStNp/5J/xtejYjKdL/zJJ+bY4ARh9su9c98EUKg5H6+vH1I/Ym9JbCRelj6+oZEPY6JTM7OzM5Juja0ZWj1YU/fBStcd+cuhUan5b5Lj701qkNFtotwjSZYXuCs1MuzVf+sLGy7eVUhs9qXRww7RmH/cLfpGVlJobeOPKd02/3YlLevb57wq6frDAxG9sdu+YfHJOUnp2Tnf423P/8jin67y8WUCefepuXF3l4jFyvdbezm9esWV7LNATXar4xAwBgWl/9FBARl8rIyc1Oiw/2PrbUtDkqIXokxqB8FiWY8qTDt645Dc36e9dKh1W7L4Q1qmtQPnxMM9vu9e+ZhdSgoyvnfLX84AOZ+W5eJ+dqNZ2HuPaI6VZqcae/Xbxg4eJNx+6xbA773D40UVmYiSqmZLHv5o09o4q99q35et3+G8WjnL1uHbJq+i4nOehJLs3CZiytZXP5URPHyr97HlVCAK48aNxI2Sc/zJy6zKNxkfNa1btb7Vb+Xj7r1Om1fSmCY9Yyn2atlXBhxxp720Xr9t8sMt/h7vG9aXNGsyOPz54wwf5sfGOR79ZJlk1YO/qXC57n8o0ZAICsSPRz27V64XRr6+mLd/vUTfv5yqFJigAguEdiDVo/A4jKKwqUviudV2iH77Nx8swnACAqNIw1bMaRD5+6bBua5jZn/dkkNgAkJG0ieoee3+hgHHAho0k2SJQlhoW9yOACvHoREpH/V9CJw994z3RLEqAipBgv/3GtfuT+Kd975hEAEBkezVR8emLf2utzzqZygR13737OetsZY+WDghsAgDrUykI1JzAknQtAAQCyriAtLeNNxZPEA6aMuJiEyDd3YvYcM+lHgQwQJuaEp0GhGVyAly+imL3CPO0WmJ5LiOUAQAMzh1GOl7NIblUhIzPzY/yo/GJu2oARHcRo/u/0d/v1p0R8N9OcGhzOBv49EnOrI6rPogNTt7AaCi/8Awp4XTjFtKymmZMhHleTW85rsjIs+DWYjDZT4LU3osDf+1n9gMlWBoKOIaZuMXk4+dzvv/yWdonCe36hrCHWVk2zU3bsP/4ZGtPnjacBAFD6WU3SL3r6+E27/OJyCcAwDAAILhcwHPv4mFkJ8amErr7uFzjrBMUs33eW47lbT18lp2emJb303TqUqqqu2m4uw6NH4g6qzwCi8ijgquqqWG1iSQ3P+SSuqq6O0SzdYhm/fPgjRqHCS00VHKp5/BPAKS0uh+Gaajhk8b2zgqtqqOI1b0vqWrXLKi6qhAEaajjkEQCcxFs34zZtsZt0+NmDul5W1v1KHh162dj5Hj81ZrKhrh4oMl9kWssvZryXw8V/fzFPdnfbezYxv4aiMchh/0l7CUhXgaB8Fh1EObOcUNDSomPAY4lIlJcyifKAvQ4nottkEllfwssyCgAymtpqUF5W0fpTkiA6FBqioqyCpGtqKWBQ2dKunKaWClS8/y430/fKs+2uK+fpBj21njqU+ehUh3QmG9Ke3LxT2iaWj4+5IwRBAP4pd+E7jxnTsFk0hfbY8RsXv+YOZxiu/tm+/Q549ajVpzxGsueD8ll0kGURT+Pgh6+X9Pf7/V2HxSJZGv40nrZxQt/KG/8JowvFNKbOt1LI9ArPbXU+ktXVNZi6RtuSTZZFBMfjOxbN0/e73rQxrjtr0SS51Eth72f+ZMm9Sz47b6xbYU0bPZoZeDaa1aHB6shLeyI/L2YeEJVl5YSyjjYNgOf6GdOc+P2h9UNyPY+cDCpsm3l8YsYAgCRJASHx6NGHnfMayZ4PymcRQmR6ulyw9d7r46V31uNxShmhYDRKD4eypk+5mZ6u7vaeZ+54mP15Ozy5sJaQUzXoDfE3H6W1uPplTNccO8TxDUsqoQ6Ys3X33MY7m9zfthb5c3Pj35TvXrR9Q8yfsQ1qxjrlQb4RxQQ387qru73XEa8LaqdvxJSpmjtsc7QpvbbaI6XV1Z/6qD8uRC7Ze24nLeeq6wshJttCxiyI2tfRCZQfth/bUHcjrgzX6K9T9uB2FLMlE3FD29277MdS2Ybv/J92uPDXScwkM+ReBMdl18ktrL+C08rYMnSjIdo45AgZUVPPeI7kx+yhW0D5LFJqY04tWcjY5rR286mVvZRlGsrzGZEPoporLFkdddzenuHkuGrryQ16dJxVVZgZd+vw3aC0qubTmygvJs3XHF1loMguTQ71+Hbz6fvtyiIr1O2HS0aHv//DW742P+XZuejbEcUAZHXksSVL8/fsXuvy105aXU7sgxPLTvwVUdnmu0Se75mbm2+tfvebT6LQP/YhOGZBcDM8nHYaHXfafmGBmgyrOOnesef/RDFbEpcojAiIKDQxzQkMyeJx6bmTmIns61uWU/bsXnXUw0lLSZZdV1lRkvg8oehjphC8R7KnI+1+T/HxilLHuoT7jLoyZf75LrunojDmUKC74dkpG/xKxeZRR3GMuQtB9VnqwdWNB6pwGpVM5u1ytS84vdBfDBJDHGMWCSifpR1cb/bhW642itXZMQGnl7l6pYvBD+uJY8yiAc23xWW+jUAIBj0fhkBIDiifEQjJAeUzAiE5oHxGICQHlM8ihaZrOmFsX7q4PRWMEBdQPosS6rAtHp6HZmuL3ajLjXT0f5MSfmqWEO4QSWi3KxCJOVTszixE53SZKxOj9zc30VAyNBus9aVPGL4xd2G7okck5lD0PIkE0WWuTJLpt9uhxlIp+WHyl37WlG/MXdhuNyAKcyjKZ4QwcIpfB9yRonbFFfGfxogxmMo45/+SYz3XDpYDAJCddiaJ4fm1ekupwnutu82IO2ndIsTElEwXH7ny8EVyZk4OI/Xtq/CAMw4tqzCBrsxO/Z4CfJeCVn1UG7eEvII2tN6sc8+mgJgFrzY7N5YK8IryRczNoag+dxdUo6+OuJ+cwvjf0m3XkzvaAzqiNPXI9RPjIl33rQjPKOfIqer2GajAaHkllx15fPaEC0ZLL3otTXV0cHvNAQAg60qaRCiYksW+m56rsMBf9q15XaE+cqmjs9ctw1XzDoVWkc2+S6eZZzMsD10/sjbWdYNdrJnzpVOn02Nt/8jgJF382spbFqOYbPE8P7BjVOzIY7Mn/ErBAAAw7Rmu7vuHvPB+9MGTUJHo57bLO7+kioWr9p/23dGfr1ALrHcH1wqKWUC7/HrU4hV9eWTH/jfMBpqBxYrdTu4e+Nw5bgkCnYOc5KAnuVvsbcbS/IPqAaDFHOrR1hzKq0cCRlIkKwaUzwAi83u+B9e2crr421qa3/cL//e4ULgDTdEaNEidGep17eHLBgAASE2IafUxP1cmX78nAH/fZWNFHqMCQEa1ksNz1Vdfms0oBQCgDtxwwnF8sfvy7d6MD83z82zy9XvybVeAsRSAr1eUL+JtDkXzbVGDKZlt8Lj3l23JiUX2R4RNZgDgZgV6h8stu+B3bseisfof85OUAv2e75v4DN8lfcwPF34c9vb4ZteINiYDYTybH43QPWrmo7yiYm0ORfUZQLTvV+G64+caqHOSCkureE3+sE4PPTfj2poZGcs3b1zl4rvzWE6Y76XTZz2jiwW/Ksjf71n4KZ1oH7SazcGzG7We7Vx9OaV1p7rKsynYWNqWj/OKirM5FNVnUcN9d2nZnB335Jf/6f/nWtPWmmqSzW7EFOl8nh5rzA/3OLDKZsSorxxvlI3f6/uf21darbfm7cps5fd8Tzu/Z1P7DWlPbt6J4eu75HW+YBozj5xaSr3j7OzbNpWaPZtHv3G5dj8sJj42+mlgZIdbr4L8nrzaFbZHnwg30/fKM+rMlfN0KdrWU4cyHwW0M4fy75FwI9k1/wagfBY9ZG2q7+4FC/e/GnzI59q2kUotR5bLeJcFA0eZKwk61I0lbwJ++3758WiduXaWtA9/b+XKbNNeWURwPG6xaJ5+y9Fu9nsGh7U1+1dHXtpz1C+d5xKArKqsxjR1NDrUOEx95kHXhdxbPx580FHxKdiz2UnM/NsVukf8wDQnbvvV46LztI7TcLLk3iWfsonrVlh/NXc0M9D/k8yhnY7ke3NoF4Dm290DWZNwdbMd8+St81cu1div/iulEYDICbgZ5nT84G87ZS4HZ9Xi9H4mmjhkNH8D11uwb+cgRlBIbGZxLaGgO8x2oQlkeqS3NnF24srk6/cUchLKzY2LK3O2c9r68vzzatX+BlVBN8OKCAAFC8eDtvTIn7wz1PoYqzX1jV1ZkFvGEtKzyd/v2Um7QhlL+SOZ5lCUz90HJ/+e83pD738P/r4nYa5LVC0QuTe2rVZyObDu+NUdihi7lpnPeP7kVXPFwagcitbkzSc26KsrUIg6ZnZihMfGHefa6no7cWUK5fcUQGPEaafzRkc3nL/pyC5Ne/ZLtE9YEQB1yLSpRlRl4wP+4QfeR5F72d7yQCRbOM8mf79nZ+1+fo8k0xyKfEPIN4TgiViaQ1F9RiBaIebmUJTPCMQHxN0civIZgfgAkee5ephnd0fx6aD7VQiE5IDyGYGQHFA+IxCSA8pnBEJyQPmMQEgOKJ+lBuTKlALQQEgLyJUpDaD7z9ICcmVKAyifpQfkypR8xH/qJV7wc3QCAEYfbLvXPfBFCoOR+vrx9SP2Jq3sBpiy2RLnE5dvPwqPeZualZufy0gOPjxBFgBkhjo/bSelBOo4l6js54fGUIVabeIqpnbO530ehr9OYTDSEmNC7rjM0mxpmm9UfBBzV6Y4guqzSOHr6ASa2XYvH0fdqHNHV+5KI/vO3eni5qXNmr7lbpMoANeZvG7L7PILh/b9lFrArKonaeqq7Aw2AHBSgp7kbP16hiXd/35N076ow2dM1St+8iiODQACHJ247qyTvr/bK8b6XD79RwyjklTQMDQiUpvcoIKi4oOYuzLFEZTPAKLze/J1dFL6rnTZNjTNbc76s0lsAEhI2kT0Dj2/0cE44ML7E5isjH/g/6zFUpnd8l12fOCDnA2LZoxTuP+4DgCAajZnlmFB4N0mUQ5/R6eSze7jDrT72+du/SevpZ2oj4qqM8TblSmOoPm2KOHn6MS0rKaZkyEeV5NbjHpkZVjwazAZbabAY1ftYMfduZupNn3BRDoAAMiOnD/HIPOfWzGNAr4HAFTz6VM0MnzO383jkSWfF5V4uzLFEWmvzyI2GfBxdOKq6uoYzdItlvHLh+0xChVeaqrgUC3orgw7wedm/KbvFlorP7xXpWDpME8nwd1XsD6+qWFVsjCviGfN+8yoxNqVKY5Iez6Lnsb8cI8D4R5HtYZNW7Jp517f6aM2zdkeUEIS5aVMojxgr8OJ6DZFlawv6cQT2RYuw+9GhONBh5lagQ/HL/1KIeyobwcfHU9HJ1FRXokN6KVNAR7u38+NqsmVud115TzdoKfWU4cyH51q58p0/MbFr1kTlGG4+mf79jtocmWWdoMrUxxB8+1uooOjkywNfxpPGzOhb2V6WmvS8yqFqbIARNF/1x82Wq9ear14zTTWPY+7he3Xyrwdney4JyEV/RZvnq3LQw0oZFQS6coUR1B9FiV8HZ3cTE9Xd3vPM3c8zP68HZ5cWEvIqRr0hvibj9KEk2SQlY/+9Mr2//73gXKMSwdDajps0Imjsyro54N3/c79FqAz4bL3k/icco6sinZv7fIg79BCQqioJNOVKY6gfBYl/B2dZHXUcXt7hpPjqq0nN+jRcVZVYWbcrcN3g9KqhHwGih1/1T1i/XGzxxevJPIq6rxdmcDNu7NtTm7E5g2Llx2wc9ZQgHpmTlLoxRc3oVC4qCTTlSmOSLvfEyESxNKVKY6g+ozoMsTclSmOoHxGdBXi7soUR9B8G4GQHNCFfgRCckD5jEBIDiifEQjJAeUzAiE5oHxGICQHdL+qK5E1NbFfYairWx20NSK+rrujQUg+KJ+7EkovbRNzDQq7Hk2DECIBnWgIhOSA8hmBkBykcr6N0XWsvzMZ0ltZXUueJo+xyyoZ4alBnul5NS2fDzEea9Orr6m6ji5NQZ6CAdFYVZv699MbD2pIAJBTNrEbajVVt5c2lVNWkRmS+uRmZn5t887l+vab/e2QYSZ0mbrakgoZ9Ko9QoRIZT4DTXXgBD0jGQCSJEiQ01IbvHBcX1PFy7vjc1gAgOlNN5s2u7XeC5dTkSfrWCQAyKhYHJw2b6Rc06eyOhqmDhb9zZQ89sRn1QOm0cf+f2OHqmFAAqmspK/SLd1DSC09K59F5dlsgmC9PPTP7VcUnRnj1n5vpNJ/8PSpaR4BdR/e6i1g+P+aml3OBll5FT3Z2jccAEx56ogZI+SAqI0/F/Lvs1qFMSNWOffTGjBk9mzGJb9qnVlDTNQwsrEs+MCzoCRC137y5lWaPLQfCESXIN3rZ5IEINhFD+Mj0wnAZHqP0GptayerKzPiSgsYlQWpRcnBOTkVJIBM33E6chgQKSkPH5XXsRpLw+PD3xIkRjEYo03HZQ2GqGAAxNt34W8auOzGslIh/JoIxBejp9Tnbn2ziqgtKyZhAFDosnIYsPi8pIvLKiphGABRWlfVrIRnVTK5ADgoydNwWXlFwAC4lax69KYvohuQ7vrcDC6nqIQBAFHHbuSfhwS7ppIgAXB1BaXmn2yRV2ny61U21BGNDbVAAlC06MpoYBHdgDSfdhiuqEmj4jh9+OAxQ3AgicJkpqD5cWNmdBGLBHzwgKnWyvKyVO3JwycOxTGSm/2isIZozIwvI0jABw+wsaRTMcCkeXgR3UBPmW93BxjVZMeCI9tIwDAMA7IsJyxIsCC+6kls0GStOSOURv4wd2TLHxuSEwIDa0gAZkB85DRrS0OlMfvmj+YSJN5edo1AdCXSnM8kl5laDr3UVOW5FYlZT/+IfVMuxLc4leFHHlTYD7OaoqenTSUrKzNDkh96ZhawAADImsKAH56UrRw6drympioF6lkVpdUl6UWlwim0EYjPo6f4hkQKpjVow1+jjHHWi4P/+MVIs64ZIWGg6SACITmgfEYgJAepnG8jEBIKqs8IhOQg7flcUFDwpR4aRyC6HWnPZwRCkkD5jEBIDiifuxlcXk2FhqQHiC8DyufuBFOx90h8fnQi9XN3JGP2Y0hO07WAgux/Nxihw/qpiPlIilm4kgZGoXyRI8BJvrRispWVlc1Gzxzxet4NU52w1e3UKtOe8uCx+I4kAEj389uSBIuZnc4EkFGqYIvXm9eYytCZdjZvfHvMkkNsRxIAUH1GICQJlM8iRkbXavOZf8LfpmczkiL9zyzp1+YIYPTBtnvdA1+kMBiprx9fP2JvQm8pXJQ+tq6eAWGvUzKzszOTY4KuHV05Wl34w0fRGvfNqVuh8WmZ7+JDb53aYKHdojWTGbYnODvl0nzlDxsr215OZfis1sUB055x2C/8TVpWZmLojSPfOf12Lybl3eu7J+z6vTcz8YvZ2O7YNf/gmKT07Jzs9Lfh/ud3TNF/f7GAOvnU27y8yMNj5Hqtu53dvGbN8lqmIbhW840ZAADT+uqngIi4VEZObnZafLD3saWmzVEJ0SMxBuWzKMGUJx2+dc1paNbfu1Y6rNp9IaxRXaOVLZBmtt3r3zMLqUFHV875avnBBzLz3bxOztVqOg9x7RHTrdTiTn+7eMHCxZuO3WPZHPa5fWiisjATVUzJYt/NG3tGFXvtW/P1uv03ikc5e906ZNX0XU5y0JNcmoXNWFrL5vKjJo6Vf/c8qoQAXHnQuJGyT36YOXWZR+Mi57Wqd7farfy9fNap02v7UgTHrGU+zVor4cKONfa2i9btv1lkvsPd43vT5oxmRx6fPWGC/dn4xiLfrZMsm7B29C8XPM/lGzMAAFmR6Oe2a/XC6dbW0xfv9qmb9vOVQ5MUAUBwj8QatH4GEJlXlNJ3pfMK7fB9Nk6e+QQARIWGsYbNOPLhU5dtQ9Pc5qw/m8QGgISkTUTv0PMbHYwDLmRwAQCAKEsMC3uRwQV49SIkIv+voBOHv/Ge6ZbE5R8WxXj5j2v1I/dP+d4zjwCAyPBopuLTE/vWXp9zNpUL7Lh793PW284YKx8U3AAA1KFWFqo5gSHpXAAKAJB1BWlpGW8qniQeMGXExSREvrkTs+eYST8KZIAwMSc8DQrN4AK8fBHF7BXmabfA9FxCLAcAGpg5jHK8nEVyqwoZmZkf8444v5ibNmBEBzGa/zv93X79KRHfzTSnBoezgX+PBAxlTwfVZ9GBqVtYDYUX/gEFvC6cYlpW08zJEI+ryS3nNVkZFvwaTEabKfDaG1Hg7/2sfsBkKwNBxxBTt5g8nHzu919+S7tE4T2/UNYQa6um2Sk79h//DI3p88bTAAAo/awm6Rc9ffymXX5xuQRgGAYABJcLGI59fMyshPhUQldf9wucdYJilu87y/HcraevktMz05Je+m4dSlVVV203l+HRI3EH1WcAUdlFcVV1Vaw2saSG53wSV1VXx2iWbrGMXz78EaNQ4aWmCg68REic0uJyGK6phkMW3zsruKqGKl7ztqSuVbus4qJKGKChhkMeAcBJvHUzbtMWu0mHnz2o62Vl3a/k0aGXQqiGPzZmsqGuHigyX2Rayy9mvJfDxX9/MU92d9t7NjG/hqIxyGH/SXsJSFeBoHwWHUQ5s5xQ0NKiY8BjiUiUlzKJ8oC9Diei22QSWV9SxDtdZTS11aC8rKL1pyRBdCg0REVZBUnX1FLAoLKlXTlNLRWoeP9dbqbvlWfbXVfO0w16aj11KPPRqQ7pTDakPbl5p7RNLB8fc0cIggD8U+7Cdx4zpmGzaArtseM3Ln7NHc4wXP2zffsd8OpRq095jGTPB+Wz6CDLIp7GwQ9fL+nv9/u7DotFsjT8aTxt44S+lTf+KxHiziemMXW+lUKmV3huq/ORrK6uwdQ12pZssiwiOB7fsWievt/1po1x3VmLJsmlXgp7P/MnS+5d8tl5Y90Ka9ro0czAs9GsDg1WR17aE/l5MfOAqCwrJ5R1tGkAPNfPmObE7w+tH5LreeRkUGHbzOMTMwYAJEkKCIlHjz7snNdI9nxQPosQItPT5YKt914fL72zHo9TyggFo1F6OJQ1fcrN9HR1t/c8c8fD7M/b4cmFtYScqkFviL/5KI3TvAMZ0zXHDnF8w5JKqAPmbN09t/HOJve3nFYtcHPj35TvXrR9Q8yfsQ1qxjrlQb4RxQQ387qru73XEa8LaqdvxJSpmjtsc7QpvbbaI6XV1Z/6qD8uRC7Ze24nLeeq6wshf9dDiJgFUfs6OoHyw/ZjG+puxJXhGv11yh7cjmK2ZCJuaLt7l/1YKtvwnf/TDhf+OomZZIbci+C47Dq5hfVXcFoZW4ZuNEQbhxwhI2rqGc+R/Jg9dAson0VKbcypJQsZ25zWbj61speyTEN5PiPyQVRzhSWro47b2zOcHFdtPblBj46zqgoz424dvhuUVtV8ehPlxaT5mqOrDBTZpcmhHt9uPn2/XVlkhbr9cMno8Pd/eMvX5qc8Oxd9O6IYgKyOPLZkaf6e3Wtd/tpJq8uJfXBi2Ym/IirbfJfI8z1zc/Ot1e9+80kUNhmFiFkQ3AwPp51Gx522X1igJsMqTrp37Pk/UcyWxCUKIwIiCk1McwJDsnhceu4kZiL7+pbllD27Vx31cNJSkmXXVVaUJD5PKPqYKQTvkezpSLtvqOlOVbf+2o6QUMe6hPuMujJl/vkuu6eiMOZQoLvh2Skb/ErF5lFHcYy5C0H1WerB1Y0HqnAalUzm7XK1Lzi90F8MEkMcYxYJKJ+lHVxv9uFbrjaK1dkxAaeXuXqlCz3X7j7EMWbRgObb4jLfRiAEg54PQyAkB5TPCITkgPIZgZAcUD4jEJIDymeRQtM1nTC2L13cngpGiAson0UJddgWD89Ds7XFbtTlRjr6v0kJPzVLCHeIJLTbFYjEHCp2Zxaic7rMlYnR+5ubaCgZmg3W+tInDN+Yu7Bd0SMScyh6nkSC6DJXJsn02+1QY6mU/DD5Sz9ryjfmLmy3GxCFORTlM0IYOMWvA+5IUbviivhPY8QYTGWc83/JsZ5rB8sBAMhOO5PE8PxavaVU4b3W3WbEnbRuEWJiSqaLj1x5+CI5MyeHkfr2VXjAGYeWVZhAV2anfk8BvktBqz6qjVtCXkEbWm/WuWdTQMyCV5udG0sFeEX5IubmUFSfuwuq0VdH3E9OYfxv6bbryR3tAR1Rmnrk+olxka77VoRnlHPkVHX7DFRgtLySy448PnvCBaOlF72Wpjo6uL3mAACQdSVNIhRMyWLfTc9VWOAv+9a8rlAfudTR2euW4ap5h0KryGbfpdPMsxmWh64fWRvrusEu1sz50qnT6bG2f2Rwki5+beUti1FMtnieH9gxKnbksdkTfqVgAACY9gxX9/1DXng/+uBJqEj0c9vlnV9SxcJV+0/77ujPV6gF1ruDawXFLKBdfj1q8Yq+PLJj/xtmA83AYsVuJ3cPfO4ctwSBzkFOctCT3C32NmNp/kH1ANBiDvVoaw7l1SMBIymSFQPKZwCR+T3fg2tbOV38bS3N7/uF/3tcKNyBpmgNGqTODPW69vBlAwAApCbEtPqYnyuTr98TgL/vsrEij1EBIKNayeG56qsvzWaUAgBQB2444Ti+2H35dm/Gh+b5eTb5+j35tivAWArA1yvKF/E2h6L5tqjBlMw2eNz7y7bkxCL7I8ImMwBwswK9w+WWXfA7t2PRWP2P+UlKgX7P9018hu+SPuaHCz8Oe3t8s2tEG5OBMJ7Nj0boHjXzUV5RsTaHovoMINr3q3Dd8XMN1DlJhaVVvCZ/WKeHnptxbc2MjOWbN65y8d15LCfM99Lps57RxYJfFeTv9yz8lE60D1rN5uDZjVrPdq6+nNK6U13l2RRsLG3Lx3lFxdkcRs9qdgAAB1RJREFUiuqzqOG+u7Rszo578sv/9P9zrWlrTTXJZjdiinQ+T4815od7HFhlM2LUV443ysbv9f3P7Sut1lvzdmW28nu+p53fs6n9hrQnN+/E8PVd8jpfMI2ZR04tpd5xdvZtm0rNns2j37hcux8WEx8b/TQwssOtV0F+T17tCtujT4Sb6XvlGXXmynm6FG3rqUOZjwLamUP590i4keyafwNQPosesjbVd/eChftfDT7kc23bSKWWI8tlvMuCgaPMlQQd6saSNwG/fb/8eLTOXDtL2oe/t3JltmmvLCI4HrdYNE+/5Wg3+z2Dw9qa/asjL+056pfOcwlAVlVWY5o6Gh1qHKY+86DrQu6tHw8+6Kj4FOzZ7CRm/u0K3SN+YJoTt/3qcdF5WsdpOFly75JP2cR1K6y/mjuaGej/SebQTkfyvTm0C0Dz7e6BrEm4utmOefLW+SuXauxX/5XSCEDkBNwMczp+8LedMpeDs2pxej8TTRwymr+B6y3Yt3MQIygkNrO4llDQHWa70AQyPdJbmzg7cWXy9XsKOQnl5sbFlTnbOW19ef55tWp/g6qgm2FFBICCheNBW3rkT94Zan2M1Zr6xq4syC1jCenZ5O/37KRdoYyl/JFMcyjK5+6Dk3/Peb2h978Hf9+TMNclqhaI3BvbViu5HFh3/OoORYxdy8xnPH/yqrniYFQORWvy5hMb9NUVKEQdMzsxwmPjjnNtdb2duDKF8nsKoDHitNN5o6Mbzt90ZJemPfsl2iesCIA6ZNpUI6qy8QH/8APvo8i9bG95IJItnGeTv9+zs3Y/v0eSaQ5FviHkG0LwRCzNoag+IxCtEHNzKMpnBOID4m4ORfNtNN9GSA7ofhUCITmgfEYgJAeUzwiE5IDyGYGQHFA+IxCSA8pnqQG5MqUANBDSAnJlSgPoeRJpAbkypQGUz9IDcmVKPuI/9RIv+Dk6AQCjD7bd6x74IoXBSH39+PoRe5NWdgNM2WyJ84nLtx+Fx7xNzcrNz2UkBx+eIAsAMkOdn7aTUgJ1nEtU9vNDY6hCrTZxFVM75/M+D8NfpzAYaYkxIXdcZmm2NM03Kj6IuStTHEH1WaTwdXQCzWy7l4+jbtS5oyt3pZF95+50cfPSZk3fcrdJFIDrTF63ZXb5hUP7fkotYFbVkzR1VXYGGwA4KUFPcrZ+PcOS7n+/pmlf1OEzpuoVP3kUxwYAAY5OXHfWSd/f7RVjfS6f/iOGUUkqaBgaEalNblBBUfFBzF2Z4gjKZwDR+T35OjopfVe6bBua5jZn/dkkNgAkJG0ieoee3+hgHHDh/QlMVsY/8H/WYqnMbvkuOz7wQc6GRTPGKdx/XAcAQDWbM8uwIPBukyiHv6NTyWb3cQfa/e1zt/6T19JO1EdF1Rni7coUR9B8W5Twc3RiWlbTzMkQj6vJLUY9sjIs+DWYjDZT4LGrdrDj7tzNVJu+YCIdAABkR86fY5D5z62YRgHfAwCq+fQpGhk+5+/m8ciSz4tKvF2Z4oi012cRv1nFx9GJq6qrYzRLt1jGLx+2xyhUeKmpgkO1oLsy7ASfm/GbvltorfzwXpWCpcM8nQR3X8H6+KaGVcnCvCKeNe8zoxJrV6Y4Iu35LHoa88M9DoR7HNUaNm3Jpp17faeP2jRne0AJSZSXMonygL0OJ6LbFFWyvqQTT2RbuAy/GxGOBx1magU+HL/0K4Wwo74dfHQ8HZ1ERXklNqCXNgV4uH8/N6omV+Z215XzdIOeWk8dynx0qp0r0/EbF79mTVCG4eqf7dvvoMmVWdoNrkxxBM23u4kOjk6yNPxpPG3MhL6V6WmtSc+rFKbKAhBF/11/2Gi9eqn14jXTWPc87ha2XyvzdnSy456EVPRbvHm2Lg81oJBRSaQrUxyh0On07o5BesD1Fuw/vKA3ziUpsnR1/SHWy9cvGVkX9NuViGICyIqUDPr8H35cOVKJ4FLkVbR69TUdZ9WPnZRR1lSbcI3xy1eZZnn/HVrIu1ixGPmqC3ZsXDrOKPvvXceelbTfiqyVG7p87fwB3OxCUnfY5Ak6xYnZtSSwGPEF/Rbv2LHKUpdC4HJK6r36moycNF67OCG7hhQYFQAAbrT83OWt1qajBlUHej5vb+jh5Kc2jtu2ffV44wLv/T+FvL+c31BBG7t83eyB7MKSOkxBTae3yaT5C0dW3fvtv3dcXH3cslUmWd5Xw1oVZurg+Vunc/67GPg+uck6mtmKtXP61GWVUA2GTxqnVZSUUyvND5ig+bYo4e/oJKujjtvbM5wcV209uUGPjrOqCjPjbh2+G5RWJeQpyo6/6h6x/rjZ44tXEnkVdd6uTODm3dk2Jzdi84bFyw7YOWsoQD0zJyn04oubUChcVJLpyhRHpN03hBAJYunKFEdQfUZ0GWLuyhRHUD4jugpxd2WKI2i+jUBIDuhCPwIhOaB8RiAkB5TPCITkgPIZgZAcUD4jEJIDymcEQnJA+YxASA4onxEIyQHlMwIhOaB8RiAkh/8DdOq6scBYf1EAAAAASUVORK5CYII=;" vertex="1" parent="1">
          <mxGeometry x="100" y="150" width="178.8" height="170" as="geometry" />
        </mxCell>
        <mxCell id="HAClDOSr-csIPDZp6A96-23" style="edgeStyle=orthogonalEdgeStyle;rounded=0;orthogonalLoop=1;jettySize=auto;html=1;" edge="1" parent="1" source="HAClDOSr-csIPDZp6A96-18" target="HAClDOSr-csIPDZp6A96-7">
          <mxGeometry relative="1" as="geometry">
            <Array as="points">
              <mxPoint x="430" y="225" />
              <mxPoint x="430" y="305" />
            </Array>
          </mxGeometry>
        </mxCell>
        <mxCell id="HAClDOSr-csIPDZp6A96-18" value="Kustomize" style="shape=image;verticalLabelPosition=bottom;labelBackgroundColor=default;verticalAlign=top;aspect=fixed;imageAspect=0;image=data:image/png,iVBORw0KGgoAAAANSUhEUgAAAfgAAAH3CAMAAABgoL2YAAAB11BMVEUAAAAAAP9VVaoqVaokSZI7YrE7Yp07TrE/X581XqFDXqFDXq89Zq49XK47Yp07WJ1CWq0/X6c/V6c3X6c2Xao8Xqg/Yqg+YKQ+W6Q6X6U+Xqw8X6pBX6o8X6VBX6U+Xqo+XqY9XKc8YaZBYao7X6M7X6c/W6c/X6c/Xqk+X6g9XaU/XaY7XaY8X6lAXKY8Xqc/Xqk/XqY8Xqk+X6hAYadAYak7Yac9Xac9Xao9X6c+X6g8X6g+XqY/Xak+X6c9Xak7X6k7X6Y/X6k9Xqg9X6c9Xqc/Xqc+YKc9Xak9Xac+X6g7X6g+X6Y/X6Y8XaY8YKY+Xqc/Xqc8Xqg+X6c+XqY+X6c7X6g+Xqk9Xqk+XqY+X6Y/Xqc7X6Y9Xag/XqY8Xqg8X6g9Xqc9Xqc+Xqc+Xqk9X6Y+Xqg9X6Y8X6g9Xqc+Xqg9X6g9Xqc9Xqc+X6g+X6k+Xag8Xqg9XqirudnP1+mTpc4/YKjm6vRifbnm6/Sfr9PO1umHm8j+//+Gm8m3w95Laa3O1+ny9fry9Pp6kcPb4e7+/v+1w9+qudmGm8jDzeRvh762w97///9Wc7OSpc5ifbier9Nuh74+X6jz9fpjfbmer9TBzeRKaa3a4O7n6/RXc7NLaq3Kc2WuAAAAc3RSTlMAAQYGBw0NDRATExMZGRoaHyAgICEmLC0tMDEzMzMzOTk6Pz9AQEBAQUZHTU1QU1RZWVleX19fYGBgZmZqbW5wcHBxdXl9fX+AgISJjIyPj5CQk5SYnJ6fn6Oprq+vur6/xcvOzs/W19zd3t/o7u/v8/n+HHta1wAAAAlwSFlzAAALEwAACxMBAJqcGAAACzBJREFUeJzt3fmbHFUVgOEhxjGgLEHGLcagkpiQKIPikm4EBTcQo6KyBCSIohJAtNslIEogCaDQiSRRQ/CPdWYYkp6qc6t76i7n3Hu/98c0Tz1FfU91zamtFxYAAAAAAAAAAAAAAAAAAAAAAAAAAAAAAAAAAAAAAAAAAAAAAAAAAAAAAAAAAAAAAAAAAAAAAAAAAAAAAAAAAAAAAAAAAAAAAACAMBaXdu4pwac/cs1W7W2Zj62fWh4WZN927Q2ah603apcKbnlJe6Nm4Pova2eKYc/7tLerdZ/UThTJ8ge0t6xtpXanfLdyu6+U59ve6f3acaLap7157Spqimu7Xnv7WrWkXSayZe0NbFXhO/xwyDgvuk67S3T7tTexTZ/T7hIff9hLiv+m57tetEW7SgK7tDeyRR/SrpLAzdob2aIawh/Q3sgWEb5ShK8U4StF+EoRvlKErxThK0X4ShG+UoSvFOErNX/4r3/r2/fm6Rs7pyxdwx3Xq+YMf/d9Dz6crfsb/zPLe67U3uz65gp/90+023lphl+xv/rdfo7wt+edXQw/HO6q/Ias2eHv+pl2OF9i+NqfrpoVfnBXxgf3dXL4ysvPCD+4I//urvB1P1c3I/zt2X/PP+wOX/Ud993hB9/XjhaCM/zwo9qbX093+Du0mwXhDn+w3i/7zvCDH2g3C8IdfrhTe/ur6Qxfxg7fFf6g9vZX0xn+O9rJwugIP7xWO4CWzvA/1k4WRlf4ar/rO8P/VDtZGF3hq328qiv8QLtYIF3hq31fRlf4Qv626wxf7V93tYcfagfQQvhKEb5ShK8U4StF+EoRvlKErxThK0X4SlURftBBO4CWMOEfecyyR+7rsHfv3k9ccYV2hvT8wx9+4pk/nMvbc49/7Yba2vuGf/TXuVdf99AN2inS8gz/RCHZV32vqp3eK/zhZ7RjBfVkTTu9T/hHf6+dKrCnKyrvEf5wad2rKu8R/rfamSJ4XLtHMv3D/0I7UgyjO7WDpNI7fHEH+Hc9u027SCK9wxe5w6+4R7tIIr3Dl7nD17PL9w3/mHagWEZf1U6SRt/wv9EOFM1D2knS6Bu+rHN2057WTpJG3/AFnaNv0k6SRt/w2nUi+rB2kyQI30J4wheM8C2ErzP8iPCELxjhmwhP+JIRvonwhC8Z4ZsIT/iSEb6J8IQvGeFbCE/4ghG+hfCELxjhWwhP+IIRvolxjvAlI3wT4QlfMsI3EZ7wJSN8E+EJXzLCNxGe8CUjfAvhCV8wwrcQnvAFI3wL4QlfMMI3Mc4RvmQK4c++1fSvAL3OtJa65vSmF0T4WOHfmjT9w2Np615qLXTNmc0vifA5hXd0/3uPRRE+o/By97/16U74fMIfl7ufONlraYTPJfzxU3L3Y/0WR/hMwgfuTvhMwju6/6Vvd87c5RHe1X3z8/slhM8gfITuhM8gfIzuhLcf/n8xuhPefPh3Lord3/brTnjr4V3dL3is2yrC2w4fqztzvO3wju7/9e1OeNvhHd1f81ivdYS3HD5ed8JbDu/o/rrHWl1CeLvhHd3/47FSlxHebPio3QlvNnzc7oS3Gj5yd8IbDR+7O2fubIZ3dO91W6UD4Q2GT9Cd8AbDy91PBO1OeHvh/31e7N7/9joR4a2FT9Od8NbCy909bqeVMc4ZC+/o7nm7TRvhbYVP1Z3wtsIn6054U+HTdSe8pfAvputOeEPhX5Sy+99WKSO8mfBJuxPeTHi5+18jdSe8lfBy9xC3VcoIbyN86u6csrURXu4e5HZaF8IbCC93D3i7jYDw+uFfUOhOeP3wKt0Jrx5epzvhtcMrdWecUw4vdw97e52E8LrhtboTXje82D3w7bQywmuGl7uHvr1ORHjF8IrdCa8YXuwe/HZaB8KrhZe7R7ndRkB4rfBi9+dTdSe8Vnh5jgvxQ1XzIbxOeLn7ZOyZc36EVwk/lrv3+iGxfgivEd7xM2IrzvPHXVC2wru7TyanYt1d2UD49OG7uic7zBM+efju7pNJv9+R2yzCpw4/q3uiwzzhE4ef2X0y+WOgtp0InzT8n+fonuYwT/iU4R0/J9VyNlhfJ8InDD9v98nF48ECuxA+Xfg/id1PSP8Y/zBP+HThHa89eFn65+inbgmfLrzk7dPnTr8ifRD7Oh3hVcOvvfbgpPTJxcinbgmvGf61d+u+Ln32UpjALoRXDP/e4+8Xnpc+jXuYJ7xe+MuPSR2TPo576pbwauGnH487I/0HUa/QEl4r/MbHIsWZbuyVthvhlcI3HpOSZ7qIV2gJrxL+1dbjceJMF/EwT3iN8NJjUuJMF+/ULeEVwouPx8kz3dhjDToRPn14x2NS4kwX7Qot4ZOHdz4eJ850FyMd5gmfOnzHY5HiTBfpME/4xOG73kYtz3RxTt0SPm347reQizNdnMM84ZOGn/VWYnGmi3KFlvApw898K7E80/3TYzVcCJ8w/BxvLZRnugiHecKnCz/XW8jFme58+BuxCK/9StMmcaYLf5gnvLXw8kw39lgTEeGthXfMdHP/+PycCG8uvDzThb5CS3h74eWZ7pTHuggIby+8Y6Ybe6xMG+ENhpdnuskbHmvTQniL4eWZLuhhnvAmw8szXcgrtIQ3Gd4x073gsT4NhLcZXp7pAl6hJbzR8PJMF+7ULeGNhnfMdMGu0BLeanjHTBfqCi3hzYZ3zHSBrtAS3m54eaYLdJgnvN3wjplu7LFSlxHecHjHTBfkME94y+HlmS7IqVvCWw7vmOlCvCqD8KbDO2a6scd6rSO87fDyTBfgVRmENx5enun8D/OENx7+3Flxl/e+Qkt46+EdM93YY9VWEd58eHmm871CS3jz4c8dE9937vljBoS3H94x0/kd5gmfQXjHTOd16pbwOYSXZzqvHzMgfA7hHTOdzxVawmcR3jHTefyYAeHzCO+Y6fof5gmfR3jHTHf+nb7LI3wm4R0zXe/DPOFzCe+Y6cY9l0b4bMI7ZrqeV2gJn014x0zX8wot4fMJ75jp+p26JXxG4R0z3bjPsgifUXjHTNfrCi3hcwrvmul6HOYJn1V4x0zX4zBP+LzCO2a6zZ+6JXxe4R0z3eYP85WE/2Ax4R0z3aZP3VYSfjF9+JNvNoV5gc2F1nLXtH66coZKwi/cljy8cbWEv4nwG9US/jrCb1RL+C3u73rCF23HgPDTqgm/5VbCT6sm/MLVrl2e8IXbQfgpFYVf+Ky8zxO+eLvE8oQv38ek8oSvwOLudnrCV+Gq3bcNBsPBFMLX4uqd+w5MueV+N+088dQYvqHrkq12nngIT/haEb5ShK8U4StF+EoRvlKErxThK0X4ShG+UoSv1BbCV6rj8SrtPPEQfmFhP+HrdCPh6+S8457whfsC4eu05NzltfPEQ/hVzufqtPPEQ/hVzqO8dp54CL9mB+Er5XiuTjtPPIRfJz9Xp50nHsK/Z8dASK+dJx7CX7J467CVXjtPPISfsnRgpfyGHV87TzyE32Bxad+BLxIe2nniIXwn7TzxEL6Tdp54CN/pOe0+0Yy0N61tT2r3ieZX2pvWth9p94nm59qb1rbd2n1iGX1Je9Ma9zvtQpGMtmlvWePu0S4UyQPaG9a6bc9qJ4qCYW6mb2o3imH0Xe3NmoEj2pUieEp7o+Zg+1HtTMEd5Yt+HsWVp/ucyio/eoruczs00s4VzOiHTPCbsP1IGelHRz6jvSlzs/3QL0e5O3qI7H1s2/35g/n6ysf5jgcAAAAAAAAAAAAAAAAAAAAAAAAAAAAAAAAAAAAAAAAAAAAAAAAAAAAAAAAAAAAAAAAAAAAAAAAAAAAAAAAAAAAAAAAAAAAAAOH9HzEMxNyiwetNAAAAAElFTkSuQmCC;" vertex="1" parent="1">
          <mxGeometry x="320" y="158" width="94" height="93.81" as="geometry" />
        </mxCell>
        <mxCell id="HAClDOSr-csIPDZp6A96-22" style="edgeStyle=orthogonalEdgeStyle;rounded=0;orthogonalLoop=1;jettySize=auto;html=1;entryX=-0.005;entryY=0.467;entryDx=0;entryDy=0;entryPerimeter=0;" edge="1" parent="1" source="HAClDOSr-csIPDZp6A96-18" target="HAClDOSr-csIPDZp6A96-6">
          <mxGeometry relative="1" as="geometry">
            <Array as="points">
              <mxPoint x="430" y="225" />
              <mxPoint x="430" y="172" />
            </Array>
          </mxGeometry>
        </mxCell>
      </root>
    </mxGraphModel>
  </diagram>
</mxfile>
